<mxfile host="app.diagrams.net" agent="Mozilla/5.0 (Windows NT 10.0; Win64; x64) AppleWebKit/537.36 (KHTML, like Gecko) Chrome/132.0.0.0 Safari/537.36" version="26.0.10">
  <diagram name="Page-1" id="e7e014a7-5840-1c2e-5031-d8a46d1fe8dd">
    <mxGraphModel dx="1434" dy="772" grid="1" gridSize="10" guides="1" tooltips="1" connect="1" arrows="1" fold="1" page="1" pageScale="1" pageWidth="1169" pageHeight="826" background="none" math="0" shadow="0">
      <root>
        <mxCell id="0" />
        <mxCell id="1" parent="0" />
        <mxCell id="ii_J8OEb5RAqHpPy1ULg-41" value="Vertical Container" style="swimlane;whiteSpace=wrap;html=1;fillColor=#FFE6CC;strokeColor=#d79b00;" vertex="1" parent="1">
          <mxGeometry x="270" y="60" width="560" height="650" as="geometry" />
        </mxCell>
        <mxCell id="ii_J8OEb5RAqHpPy1ULg-45" value="Create an account" style="ellipse;whiteSpace=wrap;html=1;fillColor=#f5f5f5;fontColor=#333333;strokeColor=#666666;" vertex="1" parent="ii_J8OEb5RAqHpPy1ULg-41">
          <mxGeometry x="210" y="50" width="140" height="70" as="geometry" />
        </mxCell>
        <mxCell id="ii_J8OEb5RAqHpPy1ULg-46" value="Share a post" style="ellipse;whiteSpace=wrap;html=1;fillColor=#f5f5f5;strokeColor=#666666;fontColor=#333333;" vertex="1" parent="ii_J8OEb5RAqHpPy1ULg-41">
          <mxGeometry x="210" y="170" width="140" height="70" as="geometry" />
        </mxCell>
        <mxCell id="ii_J8OEb5RAqHpPy1ULg-51" value="View Feed" style="ellipse;whiteSpace=wrap;html=1;fillColor=#f5f5f5;fontColor=#333333;strokeColor=#666666;" vertex="1" parent="ii_J8OEb5RAqHpPy1ULg-41">
          <mxGeometry x="210" y="270" width="140" height="70" as="geometry" />
        </mxCell>
        <mxCell id="ii_J8OEb5RAqHpPy1ULg-53" value="Comment on artist&#39;s post" style="ellipse;whiteSpace=wrap;html=1;fillColor=#f5f5f5;fontColor=#333333;strokeColor=#666666;" vertex="1" parent="ii_J8OEb5RAqHpPy1ULg-41">
          <mxGeometry x="210" y="390" width="140" height="70" as="geometry" />
        </mxCell>
        <mxCell id="ii_J8OEb5RAqHpPy1ULg-55" value="Read comments" style="ellipse;whiteSpace=wrap;html=1;fillColor=#f5f5f5;fontColor=#333333;strokeColor=#666666;" vertex="1" parent="ii_J8OEb5RAqHpPy1ULg-41">
          <mxGeometry x="210" y="480" width="140" height="70" as="geometry" />
        </mxCell>
        <mxCell id="ii_J8OEb5RAqHpPy1ULg-58" value="Message user" style="ellipse;whiteSpace=wrap;html=1;fillColor=#f5f5f5;fontColor=#333333;strokeColor=#666666;" vertex="1" parent="ii_J8OEb5RAqHpPy1ULg-41">
          <mxGeometry x="210" y="560" width="140" height="70" as="geometry" />
        </mxCell>
        <mxCell id="ii_J8OEb5RAqHpPy1ULg-47" style="edgeStyle=orthogonalEdgeStyle;rounded=0;orthogonalLoop=1;jettySize=auto;html=1;fillColor=#fff2cc;strokeColor=#d6b656;" edge="1" parent="1" source="ii_J8OEb5RAqHpPy1ULg-42" target="ii_J8OEb5RAqHpPy1ULg-45">
          <mxGeometry relative="1" as="geometry" />
        </mxCell>
        <mxCell id="ii_J8OEb5RAqHpPy1ULg-52" style="edgeStyle=orthogonalEdgeStyle;rounded=0;orthogonalLoop=1;jettySize=auto;html=1;entryX=0;entryY=0.5;entryDx=0;entryDy=0;fillColor=#fff2cc;strokeColor=#d6b656;" edge="1" parent="1" source="ii_J8OEb5RAqHpPy1ULg-42" target="ii_J8OEb5RAqHpPy1ULg-51">
          <mxGeometry relative="1" as="geometry">
            <Array as="points">
              <mxPoint x="320" y="230" />
              <mxPoint x="320" y="365" />
            </Array>
          </mxGeometry>
        </mxCell>
        <mxCell id="ii_J8OEb5RAqHpPy1ULg-54" style="edgeStyle=orthogonalEdgeStyle;rounded=0;orthogonalLoop=1;jettySize=auto;html=1;entryX=0;entryY=0.5;entryDx=0;entryDy=0;fillColor=#fff2cc;strokeColor=#d6b656;" edge="1" parent="1" source="ii_J8OEb5RAqHpPy1ULg-42" target="ii_J8OEb5RAqHpPy1ULg-53">
          <mxGeometry relative="1" as="geometry">
            <Array as="points">
              <mxPoint x="320" y="230" />
              <mxPoint x="320" y="485" />
            </Array>
          </mxGeometry>
        </mxCell>
        <mxCell id="ii_J8OEb5RAqHpPy1ULg-59" style="edgeStyle=orthogonalEdgeStyle;rounded=0;orthogonalLoop=1;jettySize=auto;html=1;entryX=0;entryY=0.5;entryDx=0;entryDy=0;fillColor=#fff2cc;strokeColor=#d6b656;" edge="1" parent="1" source="ii_J8OEb5RAqHpPy1ULg-42" target="ii_J8OEb5RAqHpPy1ULg-58">
          <mxGeometry relative="1" as="geometry">
            <Array as="points">
              <mxPoint x="320" y="230" />
              <mxPoint x="320" y="655" />
            </Array>
          </mxGeometry>
        </mxCell>
        <mxCell id="ii_J8OEb5RAqHpPy1ULg-42" value="&lt;font style=&quot;color: rgb(255, 230, 204);&quot;&gt;Indie Developer&lt;/font&gt;" style="shape=umlActor;verticalLabelPosition=bottom;verticalAlign=top;html=1;fillColor=#fff2cc;strokeColor=#d6b656;" vertex="1" parent="1">
          <mxGeometry x="100" y="160" width="70" height="140" as="geometry" />
        </mxCell>
        <mxCell id="ii_J8OEb5RAqHpPy1ULg-48" style="edgeStyle=orthogonalEdgeStyle;rounded=0;orthogonalLoop=1;jettySize=auto;html=1;entryX=1;entryY=0.5;entryDx=0;entryDy=0;fillColor=#fff2cc;strokeColor=#d6b656;" edge="1" parent="1" source="ii_J8OEb5RAqHpPy1ULg-44" target="ii_J8OEb5RAqHpPy1ULg-45">
          <mxGeometry relative="1" as="geometry" />
        </mxCell>
        <mxCell id="ii_J8OEb5RAqHpPy1ULg-56" style="edgeStyle=orthogonalEdgeStyle;rounded=0;orthogonalLoop=1;jettySize=auto;html=1;entryX=1;entryY=0.5;entryDx=0;entryDy=0;fillColor=#fff2cc;strokeColor=#d6b656;" edge="1" parent="1" source="ii_J8OEb5RAqHpPy1ULg-44" target="ii_J8OEb5RAqHpPy1ULg-55">
          <mxGeometry relative="1" as="geometry" />
        </mxCell>
        <mxCell id="ii_J8OEb5RAqHpPy1ULg-60" style="edgeStyle=orthogonalEdgeStyle;rounded=0;orthogonalLoop=1;jettySize=auto;html=1;entryX=1;entryY=0.5;entryDx=0;entryDy=0;fillColor=#fff2cc;strokeColor=#d6b656;" edge="1" parent="1" source="ii_J8OEb5RAqHpPy1ULg-44" target="ii_J8OEb5RAqHpPy1ULg-58">
          <mxGeometry relative="1" as="geometry" />
        </mxCell>
        <mxCell id="ii_J8OEb5RAqHpPy1ULg-44" value="&lt;font style=&quot;color: rgb(255, 230, 204);&quot;&gt;Artist&lt;/font&gt;" style="shape=umlActor;verticalLabelPosition=bottom;verticalAlign=top;html=1;fillColor=#fff2cc;strokeColor=#d6b656;" vertex="1" parent="1">
          <mxGeometry x="940" y="413" width="70" height="140" as="geometry" />
        </mxCell>
        <mxCell id="ii_J8OEb5RAqHpPy1ULg-50" style="edgeStyle=orthogonalEdgeStyle;rounded=0;orthogonalLoop=1;jettySize=auto;html=1;entryX=1;entryY=0.7;entryDx=0;entryDy=0;entryPerimeter=0;fillColor=#fff2cc;strokeColor=#d6b656;" edge="1" parent="1" source="ii_J8OEb5RAqHpPy1ULg-44" target="ii_J8OEb5RAqHpPy1ULg-46">
          <mxGeometry relative="1" as="geometry" />
        </mxCell>
      </root>
    </mxGraphModel>
  </diagram>
</mxfile>
